<svg xmlns="http://www.w3.org/2000/svg" width="71.607" height="75.497" viewBox="0 0 71.607 75.497">
  <g id="icon-oneteam" transform="translate(-803.482 562.628)">
    <path id="Path_137" data-name="Path 137" d="M867.6-562.128a1.208,1.208,0,0,1,.3.039c.582.151,1.175.273,1.737.479a8.5,8.5,0,0,1,4.758,4.169,1.788,1.788,0,0,0,1.272,1,34.981,34.981,0,0,1,19.459,13.34,1.2,1.2,0,0,1-.363,1.761l-9.35,5.4a1.206,1.206,0,0,1-1.522-.266,24.613,24.613,0,0,0-4.293-4.07,1.2,1.2,0,0,0-1.9.98V-537a1.2,1.2,0,0,1-1.2,1.2H857.028a1.2,1.2,0,0,1-1.2-1.2v-2.324a1.2,1.2,0,0,0-1.9-.984,24.15,24.15,0,0,0-4.349,4.11,1.2,1.2,0,0,1-1.52.267l-9.4-5.428a1.2,1.2,0,0,1-.3-1.81c1.237-1.467,2.424-2.92,3.735-4.253a33.258,33.258,0,0,1,15.92-9.057,1.34,1.34,0,0,0,.953-.765,8.633,8.633,0,0,1,6.41-4.76.885.885,0,0,0,.161-.048,1.126,1.126,0,0,1,.405-.071Zm-6.2,21.951h10.647a1.2,1.2,0,0,0,1.2-1.2v-3.469a1.2,1.2,0,0,0-1.847-1.014,8.461,8.461,0,0,1-4.687,1.364,8.428,8.428,0,0,1-4.67-1.372,1.2,1.2,0,0,0-1.848,1.013v3.477A1.2,1.2,0,0,0,861.4-540.177Zm26.843-4.212a30.3,30.3,0,0,0-11.607-7.2,1.2,1.2,0,0,0-1.5.68l-.752,1.811a1.2,1.2,0,0,0,.7,1.591,27.8,27.8,0,0,1,9.706,5.88,1.2,1.2,0,0,0,1.433.174L888-542.485A1.206,1.206,0,0,0,888.243-544.39Zm-31.42-7.2a30.333,30.333,0,0,0-11.611,7.207,1.2,1.2,0,0,0,.246,1.9l1.778,1.027a1.2,1.2,0,0,0,1.433-.175,27.983,27.983,0,0,1,9.7-5.882,1.205,1.205,0,0,0,.7-1.586l-.743-1.806A1.2,1.2,0,0,0,856.823-551.592Zm14.277-1.668a4.509,4.509,0,0,0-4.418-4.492,4.518,4.518,0,0,0-4.322,4.515,4.376,4.376,0,0,0,4.417,4.369A4.38,4.38,0,0,0,871.1-553.261Z" transform="translate(-27.438)" stroke="#fff" stroke-width="1"/>
    <path id="Path_138" data-name="Path 138" d="M996.69-387.967v-11.112a1.084,1.084,0,0,1,.894-1.067,23.93,23.93,0,0,0,5.984-1.822,1.087,1.087,0,0,0,.089-1.924l-2.346-1.362a1.086,1.086,0,0,1-.395-1.481l9.842-17.049a1.086,1.086,0,0,1,1.481-.4l2.114,1.216,1.827-1.216c-.1-.772-.2-1.542-.366-2.3-.255-1.19-.645-2.351-1.024-3.556a1.082,1.082,0,0,1,.492-1.262l9.531-5.5a1.086,1.086,0,0,1,1.54.507,36.622,36.622,0,0,1,2.813,9.962,35.834,35.834,0,0,1-1.032,14.136,1.21,1.21,0,0,0,.145.849,8.5,8.5,0,0,1,.3,9.118,8.337,8.337,0,0,1-7.564,4.436,2.77,2.77,0,0,0-1.913.8,34.487,34.487,0,0,1-20.518,10.017l-.661.086A1.085,1.085,0,0,1,996.69-387.967Zm13.96-16.942a1.085,1.085,0,0,0,1.622-1.029,8.416,8.416,0,0,1,1.139-4.939,8.456,8.456,0,0,1,3.717-3.473,1.086,1.086,0,0,0,.078-1.919l-3.363-1.94a1.087,1.087,0,0,0-1.484.4l-5.47,9.477a1.085,1.085,0,0,0,.4,1.482Zm1.273,2.674a28.137,28.137,0,0,1-10.074,5.591,1.082,1.082,0,0,0-.776,1.038v2.387a1.087,1.087,0,0,0,1.377,1.046,30.353,30.353,0,0,0,12.244-6.661,1.087,1.087,0,0,0,.138-1.475l-1.352-1.757A1.085,1.085,0,0,0,1011.922-402.235Zm12.57-13.581a30.565,30.565,0,0,0-.451-13.9,1.087,1.087,0,0,0-1.6-.66c-.731.428-1.438.84-2.157,1.228a.669.669,0,0,0-.38.919,24.208,24.208,0,0,1,.535,9.747c-.107.68-.2,1.362-.29,2.017a1.084,1.084,0,0,0,.929,1.22l2.2.3A1.087,1.087,0,0,0,1024.493-415.815Zm-3.571,13.662a4.366,4.366,0,0,0,4.434-4.338,4.4,4.4,0,0,0-4.315-4.4,4.377,4.377,0,0,0-4.423,4.352A4.348,4.348,0,0,0,1020.922-402.154Z" transform="translate(-155.183 -100.81)" stroke="#fff" stroke-width="1"/>
    <path id="Path_139" data-name="Path 139" d="M808.834-436.056l9.628,5.548a1.085,1.085,0,0,1,.478,1.307,23.913,23.913,0,0,0-1.408,6.094,1.086,1.086,0,0,0,1.622,1.037l2.352-1.353a1.086,1.086,0,0,1,1.481.4l9.858,17.04a1.086,1.086,0,0,1-.394,1.482l-2.109,1.224.142,2.19c.717.3,1.438.593,2.176.831,1.158.374,2.359.615,3.593.888a1.083,1.083,0,0,1,.848,1.057q0,5.471.01,11a1.086,1.086,0,0,1-1.208,1.081,36.608,36.608,0,0,1-10.036-2.536,35.84,35.84,0,0,1-11.733-7.952,1.21,1.21,0,0,0-.808-.3,8.5,8.5,0,0,1-8.049-4.3,8.338,8.338,0,0,1-.067-8.769,2.771,2.771,0,0,0,.26-2.058,34.484,34.484,0,0,1,1.565-22.779c.085-.2.17-.408.256-.616A1.085,1.085,0,0,1,808.834-436.056Zm7.709,20.554a1.086,1.086,0,0,0,.081,1.919,8.415,8.415,0,0,1,3.711,3.453,8.455,8.455,0,0,1,1.153,4.955,1.086,1.086,0,0,0,1.624,1.025l3.36-1.946a1.087,1.087,0,0,0,.4-1.485l-5.481-9.471a1.085,1.085,0,0,0-1.482-.4Zm-2.952-.232a28.135,28.135,0,0,1,.186-11.52,1.082,1.082,0,0,0-.512-1.191l-2.068-1.192a1.087,1.087,0,0,0-1.594.671,30.354,30.354,0,0,0-.342,13.935,1.087,1.087,0,0,0,1.209.856l2.2-.294A1.085,1.085,0,0,0,813.591-415.735Zm5.491,17.672a30.563,30.563,0,0,0,12.272,6.551,1.087,1.087,0,0,0,1.371-1.056c-.006-.847-.01-1.665.013-2.482.014-.485-.148-.658-.606-.788a24.2,24.2,0,0,1-8.712-4.4c-.536-.432-1.08-.854-1.6-1.258a1.084,1.084,0,0,0-1.521.2l-1.358,1.758A1.088,1.088,0,0,0,819.082-398.063Zm-10.054-9.915a4.366,4.366,0,0,0,1.545,6.008,4.4,4.4,0,0,0,5.966-1.543,4.377,4.377,0,0,0-1.563-6.005A4.349,4.349,0,0,0,809.028-407.978Z" transform="translate(0 -101.413)" stroke="#fff" stroke-width="1"/>
  </g>
</svg>
