<svg xmlns="http://www.w3.org/2000/svg" xmlns:xlink="http://www.w3.org/1999/xlink" width="232.928" height="47.5" viewBox="0 0 232.928 47.5">
  <defs>
    <clipPath id="clip-path">
      <rect id="Rectángulo_135" data-name="Rectángulo 135" width="232.928" height="47.5" fill="white"/>
    </clipPath>
  </defs>
  <g id="Grupo_176" data-name="Grupo 176" clip-path="url(#clip-path)">
    <path id="Trazado_159" data-name="Trazado 159" d="M3.62,87.162A4.241,4.241,0,0,1,.207,85.323a1.447,1.447,0,0,1,.3-1.853C.822,82.86,6.42,74.861,8.9,71.48s9-11.673,12.722-14.757c4.036-3.069,5.282-3.99,6.525-4.3a7.3,7.3,0,0,1,6.212.307,15.977,15.977,0,0,1,7.451,10.145A1.956,1.956,0,0,0,44.3,64.1c1.546,0,2.489-.305,3.716,0a2.457,2.457,0,0,1,1.871,3.079c-.317,1.839-2.488,3.993-3.1,5.225a5.992,5.992,0,0,0-.943,4.307,58.436,58.436,0,0,0,3.115,8.61c1.237,2.456,2.48,3.688,1.237,7.067s-5.9,3.07-7.451,2.153c-1.242-.925-2.8-3.383-3.727-6.46s-2.173-6.762-2.483-7.987a4.325,4.325,0,0,0-3.416-2.774c-1.241.306-2.483,1.228-4.964,2.153A72.06,72.06,0,0,1,17.9,82.246c-3.416.614-6.826.916-7.453,1.224-.927.314-1.544.314-1.858.923-.932.616-1.869,2.768-4.97,2.768M22.255,66.255C20.7,67.794,17.9,70.873,17.6,71.792c-.627,1.23,0,2.153.612,2.153.629.305,1.245.305,3.1,0s8.695-3.072,9.937-3.692,1.245-1.84.939-3.072a6.025,6.025,0,0,0-1.242-2.454c-.314-.93-1.557-2.462-2.8-2.153-2.173.3-4.041,2.153-5.9,3.681" transform="translate(0 -48.124)" fill="#283C61"/>
    <path id="Trazado_160" data-name="Trazado 160" d="M697.031,15.673c.939,1.845,3.424,1.535,5.284,1.535a39.864,39.864,0,0,0,6.208-.6c1.245,0,2.8.6,2.8,2.454,0,2.153-.314,8.909-.314,12.6a87.939,87.939,0,0,0,.932,11.069c.313,2.151.621,3.686,3.727,3.375a6.1,6.1,0,0,0,5.277-2.767,17.172,17.172,0,0,0,.314-4.3c-.314-1.838-1.243-5.841-1.556-8.3a71.768,71.768,0,0,1-.311-11.373,5.637,5.637,0,0,1,4.038-4.613,65.263,65.263,0,0,1,9.313-2.763c3.111-.932,10.862-3.079,13.347-3.391a43.689,43.689,0,0,1,5.6-.3c1.24.3,4.656,1.232,6.516-.926a5.379,5.379,0,0,0,1.867-4.3c0-.923-1.558-3.074-4.041-3.074A44.283,44.283,0,0,0,743.6,1.533c-5.58,1.541-13.963,3.381-17.076,4-3.41.923-4.028,1.228-4.653.923-.932-.312-1.242-.312-1.242-1.226a9.033,9.033,0,0,0,.625-3.076c0-.93-.939-1.851-2.485-1.228a15.48,15.48,0,0,0-3.731,3.992c-.931,1.538-1.548,3.072-3.72,3.384a17.3,17.3,0,0,1-5.584,0c-1.56,0-2.8-.618-4.356.613a14,14,0,0,0-4.038,4.612c-.931,1.539-.314,1.844-.314,2.15" transform="translate(-646.535)" fill="#283C61"/>
    <path id="Trazado_161" data-name="Trazado 161" d="M1258.958,119.606c-1.553.306-1.243-.305-2.174.306-1.235.618-3.724,3.384-4.966,4.616a21.248,21.248,0,0,0-2.482,3.067c-.932,1.853-.313,2.156-.313,3.083-.314.611-1.553,7.992-.931,10.761.313,2.456.931,6.444,4.656,8.3a21.555,21.555,0,0,0,14.906,1.234c6.214-1.848,15.838-7.69,18.321-9.529,2.171-1.235,2.783-.314,3.1.3a11.006,11.006,0,0,0,.626,4.306c.3,1.232,3.413,1.533,4.97.3a8.323,8.323,0,0,0,2.785-3.067,11.722,11.722,0,0,0-.616-4.916c0-.925-.311-3.076.314-3.995a3.538,3.538,0,0,1,2.789-1.846c.93.307,5.593,2.146,8.079,3.07,2.482.618,5.895,2.16,7.138,2.465a26,26,0,0,1,4.969,2.765c1.547.917,4.03,1.847,6.511,0a18.123,18.123,0,0,0,5.285-6.764c.314-1.537,0-2.769.627-3.692.3-1.232.612-1.232,1.544-1.232.932-.307,4.654-.916,6.522-1.539,1.861-.607,3.414-.607,3.414,1.539a135.528,135.528,0,0,1,0,15.993c-.314,3.072.314,4.3,2.485,3.993,1.863-.316,4.656-2.776,5.283-4.3.3-2.148-.317-4.612-.317-7.689,0-3.384-.31-8.3.317-9.532s2.171-2.146,5.268-2.767c2.8-.609,3.728-.609,5.285-1.532a7.727,7.727,0,0,0,3.721-3.995c.317-1.234,0-4-1.862-3.692-2.173.62-4.96,1.537-7.76,2.153-2.482.305-11.178,1.539-13.662,1.844a39.477,39.477,0,0,0-5.585.923,9.9,9.9,0,0,0-3.727,3.379c-.623.919-2.485,1.849-2.485.31,0-2.153,0-7.072-.312-10.761-.312-2.154-2.8-.621-3.414,0-.628.305-3.411,3.377-3.411,4-.314.919-.623,1.531-.623,4.606a14.147,14.147,0,0,1,0,5.223c0,.928-.934,2.158-4.045,2.158-3.414,0-7.753-1.853-9-2.158-1.553-.614-10.55-5.223-12.419-5.843-1.558-.917-3.1-1.535-4.656,0-1.552,1.849-3.413,3.7-4.039,4.614a16.655,16.655,0,0,0-.928,5.843c.314,1.223-.932.923-2.485,1.533-.929.306-2.8,2.771-5.584,4.313a34.42,34.42,0,0,1-12.422,5.214c-3.1.93-6.835.616-7.767-.609-1.239-1.232-.307-3.079.625-3.995a86.294,86.294,0,0,1,8.072-4.618c3.417-1.537,6.524-5.222,6.83-7.067s-1.546-3.686-3.1-2.767c-2.489,1.233-4.658,3.079-5.9,3.686a4.315,4.315,0,0,1-2.794,1.232c-1.242,0-2.488-1.232-1.863-2.458.621-.919,3.1-1.841,4.657-3.379,1.859-1.542,5.59-3.688,5.9-5.842.31-1.85-2.172-3.383-3.728-2.459-3.413,1.541-9.625,4.918-9.625,4.918" transform="translate(-1157.845 -104.238)" fill="#283C61"/>
    <path id="Trazado_162" data-name="Trazado 162" d="M2808.187,234c3.414-1.232,4.348-1.528,4.966-1.232.618,0,0,.928,1.858.928a23.078,23.078,0,0,1,8.39,1.843c2.481.919,5.585,4.918,4.658,10.148s-5.285,10.141-8.7,12.287c-3.1,1.855-7.135,4-14.9,3.393-7.754-.314-7.449-6.46-7.137-9.534s2.484-6.766,2.8-7.376.3-.923-.627-.923a1.857,1.857,0,0,1-.924-2.153c.307-1.23,1.551-2.763,3.409-4.609,1.243-1.233,2.8-1.846,6.212-2.772m-.932,7.69c-1.551.916-2.17,4.606-2.485,5.839-.314,1.537-.929,5.537,2.789,5.839,3.423.3,7.452-.609,9.635-2.761,2.481-2.146,3.41-5.232,2.166-7.073-1.237-1.539-4.349-2.153-5.893-2.153-1.56,0-4.659-.3-6.212.309" transform="translate(-2595.299 -215.872)" fill="#283C61"/>
  </g>
</svg>
