<svg id="visual" viewBox="0 0 900 600" width="900" height="600" xmlns="http://www.w3.org/2000/svg" xmlns:xlink="http://www.w3.org/1999/xlink" version="1.1"><rect x="0" y="0" width="900" height="600" fill="#000C67"></rect><path d="M0 411L37.5 397.8C75 384.7 150 358.3 225 365.3C300 372.3 375 412.7 450 430.2C525 447.7 600 442.3 675 419.3C750 396.3 825 355.7 862.5 335.3L900 315L900 601L862.5 601C825 601 750 601 675 601C600 601 525 601 450 601C375 601 300 601 225 601C150 601 75 601 37.5 601L0 601Z" fill="#EB6215" stroke-linecap="round" stroke-linejoin="miter"></path></svg>