<svg xmlns="http://www.w3.org/2000/svg" width="84.762" height="82.883" viewBox="0 0 84.762 82.883">
  <g id="Atento-logo" transform="translate(-57.067 -80.99)">
    <g id="Group_111" data-name="Group 111" transform="translate(57.067 87.946)">
      <rect id="Rectangle_102" data-name="Rectangle 102" width="4.625" height="2.313" transform="translate(0 4.625)" fill="#ef8a25"/>
      <rect id="Rectangle_103" data-name="Rectangle 103" width="4.625" height="2.313" transform="translate(6.938 4.625)" fill="#ef8a25"/>
      <rect id="Rectangle_104" data-name="Rectangle 104" width="4.625" height="2.313" transform="translate(6.938 6.938) rotate(90)" fill="#ef8a25"/>
      <rect id="Rectangle_105" data-name="Rectangle 105" width="4.625" height="2.313" transform="translate(6.938 0) rotate(90)" fill="#ef8a25"/>
    </g>
    <g id="Group_112" data-name="Group 112" transform="translate(134.859 157.079)">
      <rect id="Rectangle_106" data-name="Rectangle 106" width="2.065" height="1.033" transform="translate(0 2.065)" fill="#ef8a25"/>
      <rect id="Rectangle_107" data-name="Rectangle 107" width="2.065" height="1.033" transform="translate(3.098 2.065)" fill="#ef8a25"/>
      <rect id="Rectangle_108" data-name="Rectangle 108" width="2.065" height="1.033" transform="translate(3.098 3.098) rotate(90)" fill="#ef8a25"/>
      <rect id="Rectangle_109" data-name="Rectangle 109" width="2.065" height="1.033" transform="translate(3.098 0) rotate(90)" fill="#ef8a25"/>
    </g>
    <g id="Group_113" data-name="Group 113" transform="translate(70.252 159.264)">
      <rect id="Rectangle_110" data-name="Rectangle 110" width="1.536" height="1.536" transform="translate(3.073 4.609) rotate(-90)" fill="#a35a29"/>
      <rect id="Rectangle_111" data-name="Rectangle 111" width="1.536" height="1.536" transform="translate(1.536 3.073) rotate(-90)" fill="#a35a29"/>
      <rect id="Rectangle_112" data-name="Rectangle 112" width="1.536" height="1.536" transform="translate(0 1.536) rotate(-90)" fill="#a35a29"/>
    </g>
    <g id="Group_114" data-name="Group 114" transform="translate(119.105 96.378)">
      <rect id="Rectangle_113" data-name="Rectangle 113" width="3.132" height="3.132" transform="translate(0 3.132)" fill="#a35a29"/>
      <rect id="Rectangle_114" data-name="Rectangle 114" width="3.132" height="3.132" transform="translate(3.132 0)" fill="#a35a29"/>
    </g>
    <g id="Group_115" data-name="Group 115" transform="translate(76.931 141.036)">
      <rect id="Rectangle_115" data-name="Rectangle 115" width="1.536" height="1.536" transform="translate(1.536 0) rotate(90)" fill="#a35a29"/>
      <rect id="Rectangle_116" data-name="Rectangle 116" width="1.536" height="1.536" transform="translate(3.073 1.536) rotate(90)" fill="#a35a29"/>
    </g>
    <g id="Group_116" data-name="Group 116" transform="translate(61.09 112.543)">
      <path id="Path_147" data-name="Path 147" d="M69.511,135.4a10.808,10.808,0,0,0-1.391,2.121c-.166.454.09.75.3.724.231.081.446.055,1.08-.129a25.675,25.675,0,0,0,3.3-1.7c.408-.264.356-.692.2-1.107a2.106,2.106,0,0,0-.534-.8c-.147-.311-.643-.792-1.062-.633a4.755,4.755,0,0,0-1.9,1.527M63.9,143.448a1.489,1.489,0,0,1-1.264-.5.507.507,0,0,1,.029-.658c.083-.226,1.7-3.242,2.422-4.522a39.108,39.108,0,0,1,3.814-5.665c1.277-1.236,1.672-1.608,2.091-1.767a2.559,2.559,0,0,1,2.175-.151,5.6,5.6,0,0,1,3.016,3.22.686.686,0,0,0,.915.324,5.247,5.247,0,0,1,1.293-.154.86.86,0,0,1,.779.994c-.034.653-.7,1.493-.861,1.947a2.1,2.1,0,0,0-.149,1.539,20.5,20.5,0,0,0,1.442,2.867c.533.8,1.017,1.179.725,2.407s-1.925,1.315-2.5,1.06a4.77,4.77,0,0,1-1.566-2.093c-.45-1.03-1.036-2.263-1.2-2.676a1.514,1.514,0,0,0-1.3-.823c-.419.158-.813.53-1.639.955a25.341,25.341,0,0,1-3.452,1.391c-1.163.356-2.337.6-2.542.736-.31.147-.525.173-.608.4-.3.254-.536,1.041-1.615,1.17" transform="translate(-62.524 -125.362)" fill="#fff"/>
      <path id="Path_148" data-name="Path 148" d="M85.162,131.739c.4.6,1.255.393,1.9.315a13.965,13.965,0,0,0,2.136-.47.877.877,0,0,1,1.077.739c.089.749.261,3.114.414,4.4a30.857,30.857,0,0,0,.785,3.813c.2.736.37,1.258,1.437,1.019a2.138,2.138,0,0,0,1.722-1.182,5.986,5.986,0,0,0-.069-1.51c-.186-.627-.675-1.981-.887-2.824a25.093,25.093,0,0,1-.582-3.945,1.976,1.976,0,0,1,1.213-1.773,22.9,22.9,0,0,1,3.126-1.349c1.044-.453,3.652-1.524,4.5-1.736a15.447,15.447,0,0,1,1.936-.337c.444.052,1.67.235,2.229-.594a1.886,1.886,0,0,0,.47-1.574,1.444,1.444,0,0,0-1.533-.9,15.545,15.545,0,0,0-4.26,1.049c-1.878.769-4.719,1.759-5.777,2.1-1.148.463-1.35.6-1.58.515-.338-.07-.446-.057-.484-.375a3.14,3.14,0,0,0,.091-1.1c-.038-.324-.4-.605-.916-.324a5.434,5.434,0,0,0-1.132,1.545c-.26.574-.411,1.134-1.154,1.333a6.1,6.1,0,0,1-1.945.232c-.542.065-1-.1-1.489.394a4.889,4.889,0,0,0-1.214,1.773c-.26.573-.032.655-.02.761" transform="translate(-68.448 -123.734)" fill="#fff"/>
      <path id="Path_149" data-name="Path 149" d="M107.963,129.5c-.529.17-.444-.055-.744.2a12.068,12.068,0,0,0-1.537,1.814,7.358,7.358,0,0,0-.736,1.171c-.248.683-.02.763.018,1.084a12.019,12.019,0,0,0,.125,3.785,3.422,3.422,0,0,0,1.965,2.693,7.56,7.56,0,0,0,5.238-.192,28.792,28.792,0,0,0,5.98-4.078c.7-.52.956-.226,1.091-.025a3.857,3.857,0,0,0,.4,1.473c.156.416,1.252.391,1.743-.1a2.925,2.925,0,0,0,.841-1.185,4.13,4.13,0,0,0-.419-1.685c-.038-.322-.237-1.057-.058-1.4a1.241,1.241,0,0,1,.893-.759c.337.069,2.036.514,2.94.733.89.112,2.142.506,2.587.561a9.072,9.072,0,0,1,1.844.756,1.957,1.957,0,0,0,2.267-.271,6.372,6.372,0,0,0,1.558-2.574c.045-.548-.115-.963.063-1.31.055-.442.163-.455.487-.494.31-.144,1.581-.512,2.205-.806s1.163-.354,1.252.394a47.526,47.526,0,0,1,.666,5.565c.018,1.083.287,1.483,1.03,1.287a3.263,3.263,0,0,0,1.66-1.718,26.085,26.085,0,0,0-.43-2.662,14.871,14.871,0,0,1-.287-3.33c.164-.453.666-.837,1.718-1.183a5.412,5.412,0,0,0,1.776-.752,2.71,2.71,0,0,0,1.129-1.546c.059-.442-.167-1.392-.8-1.207-.73.306-1.662.741-2.611,1.072-.851.21-3.826,1-4.678,1.21a13.915,13.915,0,0,0-1.905.554,3.479,3.479,0,0,0-1.157,1.331c-.179.346-.788.747-.852.211-.089-.748-.294-2.461-.556-3.731-.2-.737-1-.1-1.188.142a4.754,4.754,0,0,0-1.021,1.533,3.789,3.789,0,0,0-.026,1.63,4.924,4.924,0,0,1,.217,1.818c.039.322-.234.789-1.317.918a12.229,12.229,0,0,1-3.221-.376c-.567-.15-3.89-1.38-4.566-1.518-.58-.254-1.142-.406-1.62.194-.463.708-1.034,1.427-1.214,1.773a5.839,5.839,0,0,0-.08,2.073c.159.412-.286.36-.8.636-.312.145-.858,1.081-1.765,1.734a12.062,12.062,0,0,1-4.106,2.331c-1.04.453-2.354.5-2.728.111-.483-.377-.235-1.058.052-1.417a30.2,30.2,0,0,1,2.616-1.942,4.674,4.674,0,0,0,2.083-2.744c.031-.657-.69-1.219-1.194-.834-.815.532-1.493,1.266-1.9,1.529a1.521,1.521,0,0,1-.922.545c-.432.052-.916-.325-.75-.778.177-.346,1-.77,1.48-1.37.582-.614,1.79-1.517,1.81-2.279a.917.917,0,0,0-1.4-.7c-1.123.678-3.145,2.112-3.145,2.112" transform="translate(-73.647 -123.704)" fill="#fff"/>
      <path id="Path_150" data-name="Path 150" d="M160.914,129.041c-.5.384-.564,1.693-.621,2.136-.046.547-.093,1.965,1.213,1.916a4.51,4.51,0,0,0,3.239-1.361,2.041,2.041,0,0,0,.46-2.552,3.067,3.067,0,0,0-2.14-.5,7.45,7.45,0,0,0-2.15.366m0-2.715c1.137-.571,1.451-.714,1.678-.635.214-.026.039.323.685.245a8.1,8.1,0,0,1,3,.293,3.23,3.23,0,0,1,2.044,3.338,7.2,7.2,0,0,1-2.517,4.638,7.879,7.879,0,0,1-5.047,1.8c-2.71.214-2.861-1.939-2.879-3.021a7.961,7.961,0,0,1,.666-2.684c.079-.229.066-.334-.256-.295a.653.653,0,0,1-.411-.711,4.273,4.273,0,0,1,1-1.746,4.534,4.534,0,0,1,2.046-1.223" transform="translate(-87.588 -124.221)" fill="#fff"/>
    </g>
    <g id="Group_117" data-name="Group 117" transform="translate(63.777 81.249)">
      <path id="Path_151" data-name="Path 151" d="M141.743,107.708A38.8,38.8,0,0,0,66.17,119.241" transform="translate(-66.17 -81.249)" fill="none" stroke="#ef8a25" stroke-linecap="round" stroke-width="0.5"/>
      <path id="Path_152" data-name="Path 152" d="M71.488,153a38.806,38.806,0,0,0,73.224-11.175" transform="translate(-67.568 -97.174)" fill="none" stroke="#ef8a25" stroke-linecap="round" stroke-width="0.5"/>
    </g>
    <g id="Group_118" data-name="Group 118" transform="translate(70.503 86.761)">
      <path id="Path_153" data-name="Path 153" d="M101.865,88.726a29.588,29.588,0,0,0-26.57,22.988" transform="translate(-75.295 -88.726)" fill="none" stroke="#ef8a25" stroke-linecap="round" stroke-width="0.5"/>
    </g>
    <g id="Group_119" data-name="Group 119" transform="translate(109.011 128.547)">
      <path id="Path_154" data-name="Path 154" d="M127.536,170.638a29.591,29.591,0,0,0,26.445-25.223" transform="translate(-127.536 -145.415)" fill="none" stroke="#ef8a25" stroke-linecap="round" stroke-width="0.5"/>
    </g>
  </g>
</svg>
