<svg xmlns="http://www.w3.org/2000/svg" width="69.948" height="84.788" viewBox="0 0 69.948 84.788">
  <g id="icon-accountability" transform="translate(-2706.647 -2605.383)">
    <path id="Path_127" data-name="Path 127" d="M2731.1,2606.383a32.33,32.33,0,0,1,3.214.728c6.284,2.088,9.987,6.56,11.485,12.876,1.355,5.713-.039,11.057-2.635,16.155a20.78,20.78,0,0,1-5.139,6.584,3.164,3.164,0,0,0-1.129,3.472,3.227,3.227,0,0,0,2.724,2.438,14,14,0,0,1,8.872,5.449.825.825,0,0,0,1.042.287,22.931,22.931,0,0,0,7-3.253c1.818-1.236,2.334-1.239,4.149.005a21.923,21.923,0,0,0,12.433,3.958,2.324,2.324,0,0,1,2.445,2.21c.026,3.956.288,7.932-.619,11.839a28.784,28.784,0,0,1-14.884,19.642,2.81,2.81,0,0,1-2.9-.01,28.69,28.69,0,0,1-14.578-18.381c-.063-.23-.136-.459-.221-.746h-31.784c-2.014,0-2.964-.9-2.917-2.895a48.767,48.767,0,0,1,.34-7.085,13.621,13.621,0,0,1,10.839-10.894c1.506-.294,2.716-.885,3.209-2.445a3.046,3.046,0,0,0-.932-3.386c-5.444-4.786-7.795-11.051-8.548-18.022-.958-8.873,5.872-17.3,14.768-18.383a3.671,3.671,0,0,0,.535-.146Zm11.85,48.936a10.082,10.082,0,0,0-4.521-1.988,7.8,7.8,0,0,1-6.257-6.055,8,8,0,0,1,2.661-8.239,19.888,19.888,0,0,0,2.924-3.32,20.414,20.414,0,0,0,3.632-10.24c.327-4.876-1.241-9.081-5.228-12.069-6.28-4.706-15.563-1.5-18.163,6.172a14.426,14.426,0,0,0-.005,8.519c1.1,4.14,2.7,8,6.04,10.925a8.177,8.177,0,0,1-3.833,14.385c-4.484.812-8.513,4.757-7.61,11.329h29.027c0-2.278.025-4.51-.011-6.741A2.792,2.792,0,0,1,2742.946,2655.319Zm3.659,4.494a51.917,51.917,0,0,0,.031,5.718A23.858,23.858,0,0,0,2758,2683.7a.984.984,0,0,0,1.226-.019,24.235,24.235,0,0,0,9.754-11.62,27.451,27.451,0,0,0,1.7-12.234,26.9,26.9,0,0,1-11.814-4.067.738.738,0,0,0-.635.06A26.69,26.69,0,0,1,2746.605,2659.812Z" transform="translate(0 0)" stroke="#fff" stroke-width="2"/>
  </g>
</svg>
