<svg xmlns="http://www.w3.org/2000/svg" width="70.131" height="61.911" viewBox="0 0 70.131 61.911">
  <g id="icon-agilidad" transform="translate(4798.582 -649.152)">
    <path id="Path_128" data-name="Path 128" d="M-4762.987,657.556l-5.1-4.2,5.1-4.2c0,.589,0,1.016,0,1.442,0,.9.1,1.008.977,1.021a27.109,27.109,0,0,1,12.795,3.24c8.716,4.763,13.939,12.063,15.122,21.953a28.347,28.347,0,0,1-19.717,30.6,27.189,27.189,0,0,1-8.428,1.318q-17.906.012-35.812,0c-.16,0-.32-.015-.531-.025v-3.457h.88q17.527,0,35.052,0a25.1,25.1,0,0,0,23.681-16.2c5.445-13.946-3.109-30.032-17.73-33.264a45.294,45.294,0,0,0-5.264-.674c-.9-.09-1.021.087-1.023,1.019C-4762.988,656.544-4762.987,656.958-4762.987,657.556Z"/>
    <path id="Path_129" data-name="Path 129" d="M-4665.746,739.3a14.254,14.254,0,0,1,14.256,14.309,14.275,14.275,0,0,1-14.339,14.234,14.288,14.288,0,0,1-14.192-14.316A14.273,14.273,0,0,1-4665.746,739.3Zm-11,14.255a10.982,10.982,0,0,0,10.967,11,11.013,11.013,0,0,0,11.042-10.946,11.062,11.062,0,0,0-11.021-11.057A11.021,11.021,0,0,0-4676.748,753.551Z" transform="translate(-96.661 -73.493)"/>
    <path id="Path_130" data-name="Path 130" d="M-4746.214,729.187c-2.785,0-5.57.008-8.356-.015a1.474,1.474,0,0,1-.734-.326,28.272,28.272,0,0,1-11.7-17.1,28.566,28.566,0,0,1,14.161-31.549c.14-.075.286-.137.51-.243.506,1.019,1,2.017,1.494,3.014-9.355,5.606-14.219,13.753-13.231,24.687C-4763.064,718.729-4756.415,725.494-4746.214,729.187Z" transform="translate(-25.124 -25.116)"/>
    <path id="Path_131" data-name="Path 131" d="M-4534.672,939.931l5.053,4.1-5.049,4.1c0-.623-.021-1.074,0-1.522.036-.632-.254-.857-.867-.853-2.235.017-4.47.006-6.706.006h-12.428l-.036-.114c.2-.081.4-.154.588-.243,2.02-.938,4.034-1.887,6.061-2.81a2.973,2.973,0,0,1,1.158-.319c3.688-.024,7.374-.014,11.062-.015,1.11,0,1.158-.051,1.159-1.176C-4534.672,940.764-4534.672,940.445-4534.672,939.931Z" transform="translate(-198.831 -237.066)"/>
    <path id="Path_132" data-name="Path 132" d="M-4633.738,795.008c1.731-1.733,3.407-3.411,5.085-5.087a5.539,5.539,0,0,1,.61-.56,1.779,1.779,0,0,1,2.335.173,1.794,1.794,0,0,1,.185,2.336,4.3,4.3,0,0,1-.459.514q-2.93,2.935-5.865,5.865a2.3,2.3,0,0,1-3.629.094c-.7-.632-1.413-1.253-2.11-1.891a1.836,1.836,0,0,1-.257-2.643,1.809,1.809,0,0,1,2.651-.076C-4634.716,794.129-4634.259,794.55-4633.738,795.008Z" transform="translate(-130.681 -114.018)"/>
  </g>
</svg>
