<svg xmlns="http://www.w3.org/2000/svg" width="71.548" height="71.563" viewBox="0 0 71.548 71.563">
  <g id="icon-integridad" transform="translate(-2626.625 -2132.155)">
    <path id="Path_123" data-name="Path 123" d="M2636.233,2293.463c.42-3.414,2.6-5.521,5.594-5.5,2.952.019,5.092,2.126,5.5,5.5h4.61c1.118,0,2.235-.009,3.353,0,1.083.012,1.613.506,1.617,1.557q.021,4.644,0,9.287a1.392,1.392,0,0,1-1.555,1.535c-.458.013-.919-.019-1.375.013a2.747,2.747,0,0,0-.013,5.481c.428.032.859.006,1.289.013,1.137.018,1.652.5,1.656,1.607q.017,4.6,0,9.2a1.4,1.4,0,0,1-1.6,1.571c-3.066.011-6.133,0-9.2,0q-6.62,0-13.24,0a5.864,5.864,0,0,1-6.216-6.185q-.008-11.093,0-22.186c0-1.471.424-1.9,1.881-1.9C2631.079,2293.462,2633.626,2293.463,2636.233,2293.463Zm17.9,2.752h-.925c-2.321,0-4.642.005-6.962,0-1.227,0-1.7-.488-1.709-1.729,0-.373.012-.746-.007-1.117a2.746,2.746,0,0,0-5.489-.021c-.023.428,0,.86-.01,1.289a1.41,1.41,0,0,1-1.6,1.576c-2.263.013-4.527,0-6.79,0H2629.4v.944q0,10.144,0,20.289c0,2.335,1.206,3.534,3.553,3.535q10.143,0,20.285,0h.884v-6.82c-3.379-.521-5.394-2.531-5.457-5.409a5.411,5.411,0,0,1,1.206-3.587,5.712,5.712,0,0,1,4.259-2.11Z" transform="translate(-0.018 -120.02)"/>
    <path id="Path_124" data-name="Path 124" d="M2787.9,2332.595c-3.445-.473-5.513-2.6-5.5-5.59.012-2.953,2.133-5.118,5.5-5.517v-.9c0-2.351-.007-4.7,0-7.051.005-1.126.5-1.628,1.628-1.632q4.556-.014,9.113,0c1.125,0,1.614.506,1.635,1.628.008.43-.017.861.011,1.289a2.746,2.746,0,0,0,5.479.04c.039-.513-.005-1.032.021-1.547a1.337,1.337,0,0,1,1.416-1.4q4.771-.03,9.542,0c.922.007,1.4.58,1.412,1.584.013,1.72,0,3.44,0,5.159q0,8.642,0,17.284a5.873,5.873,0,0,1-6.255,6.233q-11.047.006-22.094,0c-1.505,0-1.914-.419-1.915-1.955C2787.894,2337.7,2787.9,2335.177,2787.9,2332.595Zm2.751,6.825h.917q10.185,0,20.37,0a3.131,3.131,0,0,0,3.474-3.442q.006-10.23,0-20.46c0-.274-.025-.549-.04-.865h-6.8c-.377,3.3-2.489,5.42-5.361,5.5-3.047.083-5.163-1.911-5.754-5.452h-6.782c-.011.21-.026.376-.026.542,0,2.464,0,4.929,0,7.393,0,1.1-.5,1.614-1.531,1.647-.458.015-.918-.017-1.375.012a2.747,2.747,0,0,0,.015,5.486c.485.029.975-.008,1.461.015a1.368,1.368,0,0,1,1.426,1.4c.025.428.007.859.007,1.289C2790.647,2334.767,2790.646,2337.052,2790.646,2339.42Z" transform="translate(-119.992 -138.456)"/>
    <path id="Path_125" data-name="Path 125" d="M2656.9,2152.844v7.331c0,1.973-.292,2.26-2.3,2.26h-7.823c-1.952,0-2.256-.3-2.259-2.214,0-.229.008-.459-.008-.688a2.747,2.747,0,0,0-5.486,0c-.027.457,0,.917-.012,1.375a1.375,1.375,0,0,1-1.485,1.517q-4.685.026-9.371,0a1.377,1.377,0,0,1-1.518-1.568c-.006-7.682-.029-15.364.014-23.045a5.7,5.7,0,0,1,5.525-5.625c7.737-.062,15.475-.03,23.212-.021,1,0,1.5.545,1.5,1.581.013,2.35,0,4.7,0,7.051v.916c3.595.607,5.577,2.709,5.5,5.76C2662.319,2150.353,2660.2,2152.464,2656.9,2152.844Zm-2.751-17.929h-.951q-10.143,0-20.285,0c-2.33,0-3.526,1.208-3.527,3.559q0,10.145,0,20.289v.919h6.814c.5-3.377,2.489-5.4,5.332-5.5a5.414,5.414,0,0,1,3.6,1.156,5.7,5.7,0,0,1,2.17,4.284h6.843v-.647q0-3.568,0-7.136c0-1.339.459-1.784,1.818-1.791.373,0,.747.017,1.117-.01a2.749,2.749,0,0,0,.266-5.455,6.443,6.443,0,0,0-1.029-.038c-1.858,0-2.173-.324-2.173-2.213C2654.146,2139.9,2654.146,2137.47,2654.146,2134.916Z"/>
    <path id="Path_126" data-name="Path 126" d="M2827,2162.457c-.395,3.336-2.521,5.452-5.432,5.5-3.02.05-5.166-2-5.68-5.5h-2.2c-1.92,0-3.84.009-5.76,0-1.078-.007-1.6-.51-1.6-1.573q-.019-4.6,0-9.2a1.406,1.406,0,0,1,1.57-1.6c.458-.011.919.02,1.375-.014a2.747,2.747,0,0,0-.017-5.481c-.485-.033-.974.005-1.461-.015a1.356,1.356,0,0,1-1.461-1.449q-.028-4.729,0-9.459c.006-.978.563-1.465,1.615-1.468,3.095-.009,6.19,0,9.285,0q6.62,0,13.239,0a5.849,5.849,0,0,1,6.116,6.11q.014,11.178,0,22.357c0,1.344-.46,1.8-1.81,1.8C2832.2,2162.459,2829.629,2162.457,2827,2162.457Zm6.836-2.752v-.952q0-10.144,0-20.289c0-2.331-1.209-3.527-3.56-3.527q-10.142,0-20.284,0h-.918v6.819c3.363.484,5.4,2.482,5.5,5.33a5.433,5.433,0,0,1-1.158,3.6,5.735,5.735,0,0,1-4.338,2.177v6.839h.965c2.292,0,4.584,0,6.876,0,1.335,0,1.781.462,1.789,1.822,0,.373-.016.746.01,1.117a2.783,2.783,0,0,0,2.482,2.552,2.717,2.717,0,0,0,2.874-1.965,4.506,4.506,0,0,0,.132-1.186c.019-2.1.26-2.342,2.391-2.342Z" transform="translate(-138.421 -0.021)"/>
  </g>
</svg>
