<svg xmlns="http://www.w3.org/2000/svg" width="163.146" height="33.602" viewBox="0 0 163.146 33.602">
  <g id="Atento" transform="translate(-12.354 -33.636)">
    <path id="Path_115" data-name="Path 115" d="M30.318,73.552a2.965,2.965,0,0,1-2.391-1.3,1.035,1.035,0,0,1,.211-1.308c.22-.433,4.141-6.09,5.88-8.48s6.3-8.262,8.91-10.443c2.83-2.169,3.7-2.823,4.574-3.039a5.057,5.057,0,0,1,4.349.216,11.3,11.3,0,0,1,5.218,7.173,1.377,1.377,0,0,0,1.742.873,10.229,10.229,0,0,1,2.606,0,1.734,1.734,0,0,1,1.306,2.177c-.219,1.3-1.742,2.824-2.174,3.695a4.271,4.271,0,0,0-.657,3.048,41.865,41.865,0,0,0,2.179,6.089c.873,1.74,1.738,2.611.873,5s-4.134,2.172-5.222,1.522A9.609,9.609,0,0,1,55.112,74.2c-.653-2.174-1.521-4.781-1.739-5.65a3.04,3.04,0,0,0-2.393-1.961c-.869.218-1.741.871-3.477,1.521a49.8,49.8,0,0,1-7.181,1.958c-2.394.438-4.782.653-5.22.871-.649.22-1.083.22-1.3.652-.651.435-1.311,1.958-3.481,1.958M43.373,58.765a21.68,21.68,0,0,0-3.267,3.919c-.435.866,0,1.517.433,1.517.44.219.874.219,2.172,0a51.312,51.312,0,0,0,6.963-2.607c.869-.434.869-1.3.653-2.175a4.284,4.284,0,0,0-.87-1.739c-.219-.659-1.088-1.741-1.954-1.523-1.527.213-2.83,1.523-4.13,2.608" transform="translate(-15.43 -12.297)" fill="#fff"/>
    <path id="Path_116" data-name="Path 116" d="M67.4,56.7c.66,1.308,2.4,1.09,3.7,1.09a27.4,27.4,0,0,0,4.35-.431A1.758,1.758,0,0,1,77.411,59.1c0,1.52-.22,6.3-.22,8.912a62.835,62.835,0,0,0,.652,7.832c.217,1.522.436,2.61,2.608,2.391a4.275,4.275,0,0,0,3.7-1.96,12.24,12.24,0,0,0,.22-3.041c-.22-1.3-.872-4.131-1.09-5.871a51.511,51.511,0,0,1-.22-8.043,3.985,3.985,0,0,1,2.831-3.265,45.754,45.754,0,0,1,6.52-1.955c2.178-.656,7.613-2.177,9.346-2.4a30.641,30.641,0,0,1,3.924-.211c.867.211,3.262.869,4.565-.657a3.828,3.828,0,0,0,1.306-3.044,2.9,2.9,0,0,0-2.831-2.173,30.654,30.654,0,0,0-8.7,1.085c-3.913,1.088-9.783,2.391-11.965,2.828-2.392.653-2.819.871-3.256.653-.653-.223-.875-.223-.875-.87a6.308,6.308,0,0,0,.442-2.172c0-.659-.659-1.31-1.742-.869a10.994,10.994,0,0,0-2.609,2.821c-.655,1.091-1.09,2.177-2.609,2.4a12.1,12.1,0,0,1-3.911,0c-1.092,0-1.961-.438-3.048.432a9.886,9.886,0,0,0-2.831,3.258c-.649,1.094-.219,1.31-.219,1.523" transform="translate(-19.678 -11.979)" fill="#fff"/>
    <path id="Path_117" data-name="Path 117" d="M106.213,57.181c-1.089.213-.87-.218-1.522.213a24.446,24.446,0,0,0-3.481,3.266,14.977,14.977,0,0,0-1.738,2.173c-.65,1.306-.218,1.522-.218,2.178-.223.432-1.091,5.65-.652,7.61.22,1.739.652,4.564,3.258,5.869a14.97,14.97,0,0,0,10.444.872c4.349-1.31,11.092-5.44,12.831-6.741,1.518-.87,1.949-.22,2.169.215a7.891,7.891,0,0,0,.437,3.046c.216.873,2.394,1.082,3.481.214a5.824,5.824,0,0,0,1.953-2.174,8.45,8.45,0,0,0-.43-3.478c0-.652-.22-2.176.219-2.822a2.472,2.472,0,0,1,1.95-1.312c.655.221,3.922,1.523,5.659,2.173,1.742.44,4.133,1.528,5,1.744a18.017,18.017,0,0,1,3.482,1.955,3.872,3.872,0,0,0,4.563,0,12.843,12.843,0,0,0,3.7-4.781c.218-1.091,0-1.959.439-2.61.211-.871.43-.871,1.082-.871.646-.217,3.257-.648,4.564-1.088s2.392-.433,2.392,1.088a95.9,95.9,0,0,1,0,11.315c-.219,2.169.222,3.038,1.741,2.817a6.49,6.49,0,0,0,3.7-3.042c.214-1.519-.219-3.259-.219-5.438,0-2.391-.219-5.868.219-6.739s1.521-1.521,3.694-1.962c1.958-.43,2.611-.43,3.7-1.081a5.439,5.439,0,0,0,2.6-2.828c.221-.87,0-2.83-1.306-2.609-1.522.435-3.471,1.087-5.434,1.517-1.74.222-7.826,1.092-9.567,1.31a27.445,27.445,0,0,0-3.91.651,7,7,0,0,0-2.613,2.392c-.436.649-1.739,1.309-1.739.219,0-1.521,0-5-.22-7.61-.22-1.523-1.958-.438-2.388,0a9.639,9.639,0,0,0-2.394,2.827,7.722,7.722,0,0,0-.436,3.262,10.113,10.113,0,0,1,0,3.695c0,.658-.652,1.523-2.831,1.523-2.393,0-5.437-1.306-6.3-1.523-1.088-.436-7.393-3.695-8.7-4.132-1.088-.652-2.17-1.09-3.257,0-1.092,1.307-2.394,2.608-2.832,3.262a11.829,11.829,0,0,0-.651,4.135c.219.864-.651.653-1.742,1.084-.646.218-1.953,1.961-3.909,3.048a23.906,23.906,0,0,1-8.7,3.692c-2.175.657-4.792.436-5.444-.433-.867-.869-.214-2.176.443-2.826a58.553,58.553,0,0,1,5.651-3.264c2.392-1.09,4.567-3.7,4.784-5s-1.085-2.608-2.173-1.957c-1.744.869-3.261,2.177-4.131,2.61a3.047,3.047,0,0,1-1.962.871c-.868,0-1.738-.871-1.3-1.738.435-.653,2.173-1.306,3.264-2.393,1.3-1.089,3.911-2.609,4.131-4.132a1.835,1.835,0,0,0-2.611-1.739c-2.393,1.088-6.741,3.479-6.741,3.479" transform="translate(-23.037 -12.67)" fill="#fff"/>
    <path id="Path_118" data-name="Path 118" d="M193.945,59.878c2.393-.873,3.049-1.085,3.479-.873.432,0,0,.657,1.3.657a16.084,16.084,0,0,1,5.877,1.3c1.742.65,3.913,3.482,3.259,7.18s-3.695,7.175-6.089,8.695a15.621,15.621,0,0,1-10.438,2.394c-5.434-.218-5.221-4.568-5-6.736a16.313,16.313,0,0,1,1.959-5.222c.213-.44.213-.651-.437-.651a1.328,1.328,0,0,1-.647-1.527,8.622,8.622,0,0,1,2.39-3.263c.867-.87,1.958-1.3,4.349-1.955m-.65,5.436c-1.088.651-1.523,3.26-1.741,4.132-.22,1.089-.652,3.918,1.95,4.133,2.4.214,5.221-.433,6.748-1.953,1.74-1.523,2.393-3.7,1.521-5-.866-1.09-3.048-1.527-4.128-1.527s-3.264-.214-4.349.218" transform="translate(-32.48 -13.411)" fill="#fff"/>
  </g>
</svg>
